# xmcd CD database file
#
# Track frame offsets:
#	150
#	28197
#	63717
#	100745
#	130230
#	179582
#	216657
#	240355
#
# Disc length: 3546 seconds
#
# Revision: 0
# Processed by: cddbd v1.5.1PL0 Copyright (c) Steve Scherf et al.
# Submitted via: CDex 1.51
#
DISCID=770dd808
DTITLE=Ed Peteresen - The Haint
DYEAR=1994
DGENRE=Jazz
TTITLE0=Bebop (Dizzy Gillespie)
TTITLE1=Jitterbug Waltz (Fats Waller)
TTITLE2=Green Chimneys (Thelonious Monk)
TTITLE3=You Don't Know What Love Is (Raye--DePaul)
TTITLE4=Walking In The Sky
TTITLE5=The Haint
TTITLE6=Larry Smith
TTITLE7=When I Fall In Love (Victor Young)
EXTD=YEAR: 1994
EXTT0=
EXTT1=
EXTT2=
EXTT3=
EXTT4=
EXTT5=
EXTT6=
EXTT7=
PLAYORDER=
